# Blender 4.3.0 Alpha
# www.blender.org
mtllib DirtBall.mtl
o Sphere
v 0.000852 0.170597 -0.414064
v -0.003056 0.002005 -0.432883
v -0.002881 -0.190846 -0.423215
v 0.005019 -0.428315 -0.182539
v 0.081979 0.491073 -0.161180
v 0.142008 0.365054 -0.330718
v 0.171321 0.175848 -0.395976
v 0.175038 0.003392 -0.416992
v 0.153051 -0.173779 -0.366628
v 0.126336 -0.346844 -0.319790
v 0.065488 -0.404650 -0.157077
v 0.138299 0.529211 -0.129576
v 0.280123 0.395663 -0.275852
v 0.342247 0.194544 -0.357546
v 0.330112 -0.005500 -0.343108
v 0.295491 -0.176232 -0.297371
v 0.252054 -0.349431 -0.241348
v 0.107217 -0.368992 -0.109738
v 0.173571 0.523628 -0.062157
v 0.335855 0.378594 -0.128910
v 0.484632 0.236853 -0.213222
v 0.470528 -0.002749 -0.196101
v 0.422178 -0.214378 -0.179025
v 0.309063 -0.338438 -0.122368
v 0.137886 -0.360314 -0.057115
v 0.187384 0.503728 0.016830
v 0.344625 0.367833 0.003841
v 0.543079 0.263718 0.001634
v 0.634310 -0.024051 -0.004136
v 0.409373 -0.189554 -0.003228
v 0.329773 -0.335056 0.000002
v 0.149247 -0.360313 0.000000
v 0.173912 0.501031 0.082889
v 0.281863 0.306702 0.124770
v 0.408162 0.191995 0.183703
v 0.511160 -0.009024 0.217055
v 0.356285 -0.157751 0.153405
v 0.300256 -0.329695 0.115975
v 0.137886 -0.360313 0.057114
v 0.138130 0.495748 0.137157
v 0.236340 0.348556 0.256999
v 0.340195 0.205065 0.342730
v 0.377667 0.002964 0.382605
v 0.321029 -0.199234 0.327199
v 0.216448 -0.307976 0.213098
v 0.105533 -0.360313 0.105533
v 0.078610 0.464511 0.166503
v 0.130293 0.409149 0.366414
v 0.190001 0.230228 0.475963
v 0.204419 -0.003651 0.554769
v 0.156011 -0.167421 0.391662
v 0.109706 -0.282093 0.268440
v 0.057114 -0.360313 0.137886
v 0.007056 0.393609 0.156824
v -0.012524 0.364521 0.359169
v -0.009155 0.205251 0.483049
v -0.022323 -0.004154 0.556280
v 0.004586 -0.161527 0.406175
v 0.001673 -0.279814 0.285925
v -0.000000 -0.360313 0.149247
v -0.000098 -0.390587 -0.000297
v 0.016661 0.451864 0.001734
v -0.054279 0.369738 0.137735
v -0.124650 0.318192 0.291979
v -0.167951 0.181687 0.395935
v -0.187295 -0.002021 0.442790
v -0.138255 -0.152283 0.346431
v -0.105382 -0.276409 0.256434
v -0.057114 -0.360313 0.137886
v -0.103778 0.366337 0.105198
v -0.205863 0.291151 0.205776
v -0.266099 0.163598 0.266140
v -0.275772 0.000000 0.275772
v -0.254780 -0.149247 0.254780
v -0.195000 -0.275772 0.195000
v -0.105533 -0.360313 0.105533
v -0.136538 0.365066 0.056707
v -0.254853 0.275868 0.105598
v -0.332886 0.149247 0.137886
v -0.360313 0.000000 0.149246
v -0.332886 -0.149247 0.137886
v -0.254780 -0.275772 0.105533
v -0.137886 -0.360313 0.057114
v -0.147817 0.365409 -0.000618
v -0.275772 0.275772 -0.000000
v -0.361796 0.149406 -0.000614
v -0.391739 0.000187 -0.000720
v -0.360313 -0.149247 -0.000000
v -0.275807 -0.275826 -0.000040
v -0.149339 -0.360862 -0.000281
v -0.135835 0.367559 -0.058184
v -0.254813 0.275775 -0.105547
v -0.343833 0.151328 -0.144456
v -0.371978 0.001842 -0.155526
v -0.334127 -0.150157 -0.138850
v -0.257903 -0.281254 -0.109586
v -0.139449 -0.366660 -0.061046
v -0.102116 0.372130 -0.107403
v -0.195894 0.276320 -0.196216
v -0.272921 0.158357 -0.276480
v -0.291779 0.006446 -0.291912
v -0.260021 -0.158950 -0.263137
v -0.213544 -0.323351 -0.233165
v -0.110966 -0.383022 -0.121218
v -0.051409 0.379589 -0.140916
v -0.106823 0.279685 -0.261146
v -0.151690 0.166098 -0.375348
v -0.159134 0.005450 -0.400881
v -0.149137 -0.189522 -0.387581
v -0.130934 -0.383810 -0.349822
v -0.060505 -0.414688 -0.169805
v 0.011964 0.410546 -0.159193
v 0.007064 0.321479 -0.319825
v -0.009524 -0.383994 -0.376421
vn -0.1402 0.3385 -0.9305
vn -0.0330 0.0054 -0.9994
vn 0.0437 -0.1844 -0.9819
vn 0.0995 -0.9950 0.0037
vn -0.4754 0.8021 -0.3615
vn -0.0773 0.6084 -0.7899
vn 0.1496 0.2396 -0.9593
vn 0.2659 -0.0889 -0.9599
vn 0.3681 -0.2696 -0.8898
vn 0.4173 -0.7060 -0.5722
vn 0.3427 -0.9384 0.0441
vn -0.0794 0.9818 -0.1725
vn 0.3935 0.7001 -0.5958
vn 0.5133 0.2511 -0.8207
vn 0.5439 -0.1663 -0.8225
vn 0.5482 -0.3680 -0.7510
vn 0.4241 -0.8093 -0.4065
vn 0.2705 -0.9607 0.0625
vn 0.1865 0.9758 0.1138
vn 0.6222 0.7586 -0.1933
vn 0.7674 0.4066 -0.4957
vn 0.7933 -0.2108 -0.5712
vn 0.7580 -0.5129 -0.4030
vn 0.4837 -0.8646 -0.1363
vn 0.1772 -0.9842 0.0051
vn 0.2206 0.9482 0.2285
vn 0.6007 0.7603 0.2470
vn 0.7810 0.6066 0.1484
vn 0.9596 -0.2790 0.0355
vn 0.7901 -0.6041 0.1039
vn 0.5486 -0.8282 0.1146
vn 0.1698 -0.9854 0.0153
vn 0.2762 0.9434 0.1836
vn 0.6532 0.6649 0.3623
vn 0.6971 0.5573 0.4510
vn 0.8489 -0.1800 0.4969
vn 0.7433 -0.5842 0.3259
vn 0.5259 -0.8114 0.2551
vn 0.1639 -0.9794 0.1179
vn 0.1548 0.9732 0.1699
vn 0.6520 0.6974 0.2975
vn 0.7311 0.5046 0.4591
vn 0.7665 -0.1380 0.6273
vn 0.5519 -0.6529 0.5188
vn 0.2946 -0.8540 0.4289
vn 0.1286 -0.9616 0.2424
vn -0.3290 0.9138 0.2381
vn 0.1407 0.8317 0.5371
vn 0.3317 0.4838 0.8099
vn 0.3427 -0.1970 0.9186
vn 0.1663 -0.6966 0.6979
vn 0.0880 -0.8191 0.5669
vn 0.0808 -0.9415 0.3272
vn -0.5113 0.8337 0.2086
vn -0.4092 0.7745 0.4824
vn -0.2985 0.4512 0.8410
vn -0.2686 -0.2150 0.9390
vn -0.1534 -0.6904 0.7070
vn -0.0752 -0.7863 0.6133
vn -0.0181 -0.9331 0.3592
vn 0.0146 -0.9903 0.1385
vn -0.4452 0.8939 0.0526
vn -0.3845 0.8912 0.2406
vn -0.5255 0.7684 0.3653
vn -0.6636 0.4055 0.6286
vn -0.6873 -0.1605 0.7085
vn -0.4853 -0.5723 0.6610
vn -0.3170 -0.7378 0.5960
vn -0.1569 -0.9262 0.3429
vn -0.4021 0.8806 0.2506
vn -0.6089 0.7349 0.2986
vn -0.8120 0.3559 0.4625
vn -0.8327 -0.0755 0.5486
vn -0.6975 -0.4352 0.5693
vn -0.5069 -0.7124 0.4853
vn -0.2724 -0.9236 0.2695
vn -0.4881 0.8576 0.1621
vn -0.6820 0.7030 0.2014
vn -0.8786 0.3656 0.3072
vn -0.9278 -0.0156 0.3727
vn -0.8524 -0.3842 0.3546
vn -0.6528 -0.7073 0.2713
vn -0.3539 -0.9232 0.1500
vn -0.5216 0.8531 0.0104
vn -0.7083 0.7058 0.0138
vn -0.9192 0.3923 0.0327
vn -0.9994 -0.0103 0.0326
vn -0.9211 -0.3887 0.0191
vn -0.7120 -0.7017 0.0268
vn -0.3853 -0.9216 0.0473
vn -0.4941 0.8525 -0.1707
vn -0.6524 0.7220 -0.2304
vn -0.8640 0.4156 -0.2841
vn -0.9460 -0.0294 -0.3228
vn -0.8876 -0.3661 -0.2795
vn -0.7298 -0.6734 -0.1181
vn -0.3980 -0.9158 0.0543
vn -0.4135 0.8522 -0.3205
vn -0.5143 0.7436 -0.4273
vn -0.6932 0.4418 -0.5695
vn -0.7785 -0.0223 -0.6273
vn -0.8069 -0.2743 -0.5232
vn -0.7439 -0.6336 -0.2122
vn -0.4205 -0.8989 0.1232
vn -0.4256 0.8354 -0.3478
vn -0.4306 0.7272 -0.5345
vn -0.4440 0.4271 -0.7877
vn -0.4598 0.0169 -0.8879
vn -0.5116 -0.1819 -0.8398
vn -0.5084 -0.7026 -0.4979
vn -0.2909 -0.9532 0.0824
vn -0.5575 0.7610 -0.3318
vn -0.3557 0.6562 -0.6655
vn 0.1313 -0.7224 -0.6788
vt 0.750000 0.125000
vt 0.750000 0.250000
vt 0.687500 0.250000
vt 0.687500 0.125000
vt 0.750000 0.375000
vt 0.750000 0.500000
vt 0.687500 0.500000
vt 0.687500 0.375000
vt 0.750000 0.625000
vt 0.750000 0.750000
vt 0.687500 0.750000
vt 0.687500 0.625000
vt 0.750000 0.875000
vt 0.718750 1.000000
vt 0.687500 0.875000
vt 0.718750 0.000000
vt 0.656250 0.000000
vt 0.625000 0.125000
vt 0.625000 0.375000
vt 0.625000 0.250000
vt 0.625000 0.625000
vt 0.625000 0.500000
vt 0.625000 0.875000
vt 0.625000 0.750000
vt 0.656250 1.000000
vt 0.562500 0.625000
vt 0.562500 0.500000
vt 0.562500 0.875000
vt 0.562500 0.750000
vt 0.562500 0.250000
vt 0.562500 0.125000
vt 0.562500 0.375000
vt 0.593750 1.000000
vt 0.593750 0.000000
vt 0.500000 0.250000
vt 0.500000 0.125000
vt 0.500000 0.500000
vt 0.500000 0.375000
vt 0.500000 0.750000
vt 0.500000 0.625000
vt 0.531250 1.000000
vt 0.500000 0.875000
vt 0.531250 0.000000
vt 0.437500 0.750000
vt 0.437500 0.625000
vt 0.468750 1.000000
vt 0.437500 0.875000
vt 0.468750 0.000000
vt 0.437500 0.125000
vt 0.437500 0.375000
vt 0.437500 0.250000
vt 0.437500 0.500000
vt 0.406250 0.000000
vt 0.375000 0.125000
vt 0.375000 0.375000
vt 0.375000 0.250000
vt 0.375000 0.625000
vt 0.375000 0.500000
vt 0.375000 0.875000
vt 0.375000 0.750000
vt 0.406250 1.000000
vt 0.312500 0.875000
vt 0.312500 0.750000
vt 0.312500 0.250000
vt 0.312500 0.125000
vt 0.312500 0.500000
vt 0.312500 0.375000
vt 0.312500 0.625000
vt 0.343750 1.000000
vt 0.343750 0.000000
vt 0.250000 0.250000
vt 0.250000 0.125000
vt 0.250000 0.500000
vt 0.250000 0.375000
vt 0.250000 0.750000
vt 0.250000 0.625000
vt 0.281250 1.000000
vt 0.250000 0.875000
vt 0.281250 0.000000
vt 0.218750 1.000000
vt 0.187500 0.875000
vt 0.218750 0.000000
vt 0.187500 0.125000
vt 0.187500 0.375000
vt 0.187500 0.250000
vt 0.187500 0.625000
vt 0.187500 0.500000
vt 0.187500 0.750000
vt 0.125000 0.375000
vt 0.125000 0.250000
vt 0.125000 0.625000
vt 0.125000 0.500000
vt 0.125000 0.875000
vt 0.125000 0.750000
vt 0.125000 0.125000
vt 0.156250 1.000000
vt 0.156250 0.000000
vt 0.062500 0.250000
vt 0.062500 0.125000
vt 0.062500 0.500000
vt 0.062500 0.375000
vt 0.062500 0.750000
vt 0.062500 0.625000
vt 0.093750 1.000000
vt 0.062500 0.875000
vt 0.093750 0.000000
vt 0.000000 0.500000
vt 0.000000 0.375000
vt 0.000000 0.750000
vt 0.000000 0.625000
vt 0.031250 1.000000
vt 0.000000 0.875000
vt 0.031250 0.000000
vt 0.000000 0.125000
vt 0.000000 0.250000
vt 0.968750 0.000000
vt 1.000000 0.125000
vt 0.937500 0.125000
vt 1.000000 0.250000
vt 1.000000 0.375000
vt 0.937500 0.375000
vt 0.937500 0.250000
vt 1.000000 0.500000
vt 1.000000 0.625000
vt 0.937500 0.625000
vt 0.937500 0.500000
vt 1.000000 0.750000
vt 1.000000 0.875000
vt 0.937500 0.875000
vt 0.937500 0.750000
vt 0.968750 1.000000
vt 0.875000 0.625000
vt 0.875000 0.500000
vt 0.875000 0.875000
vt 0.875000 0.750000
vt 0.875000 0.250000
vt 0.875000 0.125000
vt 0.875000 0.375000
vt 0.906250 1.000000
vt 0.906250 0.000000
vt 0.812500 0.250000
vt 0.812500 0.125000
vt 0.812500 0.500000
vt 0.812500 0.375000
vt 0.812500 0.750000
vt 0.812500 0.625000
vt 0.843750 1.000000
vt 0.812500 0.875000
vt 0.843750 0.000000
vt 0.781250 1.000000
vt 0.781250 0.000000
s 1
f 4/1/4 114/2/114 10/3/10 11/4/11
f 3/5/3 2/6/2 8/7/8 9/8/9
f 1/9/1 113/10/113 6/11/6 7/12/7
f 112/13/112 62/14/62 5/15/5
f 61/16/61 4/1/4 11/4/11
f 114/2/114 3/5/3 9/8/9 10/3/10
f 2/6/2 1/9/1 7/12/7 8/7/8
f 113/10/113 112/13/112 5/15/5 6/11/6
f 61/17/61 11/4/11 18/18/18
f 10/3/10 9/8/9 16/19/16 17/20/17
f 8/7/8 7/12/7 14/21/14 15/22/15
f 6/11/6 5/15/5 12/23/12 13/24/13
f 11/4/11 10/3/10 17/20/17 18/18/18
f 9/8/9 8/7/8 15/22/15 16/19/16
f 7/12/7 6/11/6 13/24/13 14/21/14
f 5/15/5 62/25/62 12/23/12
f 15/22/15 14/21/14 21/26/21 22/27/22
f 13/24/13 12/23/12 19/28/19 20/29/20
f 18/18/18 17/20/17 24/30/24 25/31/25
f 16/19/16 15/22/15 22/27/22 23/32/23
f 14/21/14 13/24/13 20/29/20 21/26/21
f 12/23/12 62/33/62 19/28/19
f 61/34/61 18/18/18 25/31/25
f 17/20/17 16/19/16 23/32/23 24/30/24
f 25/31/25 24/30/24 31/35/31 32/36/32
f 23/32/23 22/27/22 29/37/29 30/38/30
f 21/26/21 20/29/20 27/39/27 28/40/28
f 19/28/19 62/41/62 26/42/26
f 61/43/61 25/31/25 32/36/32
f 24/30/24 23/32/23 30/38/30 31/35/31
f 22/27/22 21/26/21 28/40/28 29/37/29
f 20/29/20 19/28/19 26/42/26 27/39/27
f 28/40/28 27/39/27 34/44/34 35/45/35
f 26/42/26 62/46/62 33/47/33
f 61/48/61 32/36/32 39/49/39
f 31/35/31 30/38/30 37/50/37 38/51/38
f 29/37/29 28/40/28 35/45/35 36/52/36
f 27/39/27 26/42/26 33/47/33 34/44/34
f 32/36/32 31/35/31 38/51/38 39/49/39
f 30/38/30 29/37/29 36/52/36 37/50/37
f 61/53/61 39/49/39 46/54/46
f 38/51/38 37/50/37 44/55/44 45/56/45
f 36/52/36 35/45/35 42/57/42 43/58/43
f 34/44/34 33/47/33 40/59/40 41/60/41
f 39/49/39 38/51/38 45/56/45 46/54/46
f 37/50/37 36/52/36 43/58/43 44/55/44
f 35/45/35 34/44/34 41/60/41 42/57/42
f 33/47/33 62/61/62 40/59/40
f 41/60/41 40/59/40 47/62/47 48/63/48
f 46/54/46 45/56/45 52/64/52 53/65/53
f 44/55/44 43/58/43 50/66/50 51/67/51
f 42/57/42 41/60/41 48/63/48 49/68/49
f 40/59/40 62/69/62 47/62/47
f 61/70/61 46/54/46 53/65/53
f 45/56/45 44/55/44 51/67/51 52/64/52
f 43/58/43 42/57/42 49/68/49 50/66/50
f 53/65/53 52/64/52 59/71/59 60/72/60
f 51/67/51 50/66/50 57/73/57 58/74/58
f 49/68/49 48/63/48 55/75/55 56/76/56
f 47/62/47 62/77/62 54/78/54
f 61/79/61 53/65/53 60/72/60
f 52/64/52 51/67/51 58/74/58 59/71/59
f 50/66/50 49/68/49 56/76/56 57/73/57
f 48/63/48 47/62/47 54/78/54 55/75/55
f 54/78/54 62/80/62 63/81/63
f 61/82/61 60/72/60 69/83/69
f 59/71/59 58/74/58 67/84/67 68/85/68
f 57/73/57 56/76/56 65/86/65 66/87/66
f 55/75/55 54/78/54 63/81/63 64/88/64
f 60/72/60 59/71/59 68/85/68 69/83/69
f 58/74/58 57/73/57 66/87/66 67/84/67
f 56/76/56 55/75/55 64/88/64 65/86/65
f 68/85/68 67/84/67 74/89/74 75/90/75
f 66/87/66 65/86/65 72/91/72 73/92/73
f 64/88/64 63/81/63 70/93/70 71/94/71
f 69/83/69 68/85/68 75/90/75 76/95/76
f 67/84/67 66/87/66 73/92/73 74/89/74
f 65/86/65 64/88/64 71/94/71 72/91/72
f 63/81/63 62/96/62 70/93/70
f 61/97/61 69/83/69 76/95/76
f 76/95/76 75/90/75 82/98/82 83/99/83
f 74/89/74 73/92/73 80/100/80 81/101/81
f 72/91/72 71/94/71 78/102/78 79/103/79
f 70/93/70 62/104/62 77/105/77
f 61/106/61 76/95/76 83/99/83
f 75/90/75 74/89/74 81/101/81 82/98/82
f 73/92/73 72/91/72 79/103/79 80/100/80
f 71/94/71 70/93/70 77/105/77 78/102/78
f 81/101/81 80/100/80 87/107/87 88/108/88
f 79/103/79 78/102/78 85/109/85 86/110/86
f 77/105/77 62/111/62 84/112/84
f 61/113/61 83/99/83 90/114/90
f 82/98/82 81/101/81 88/108/88 89/115/89
f 80/100/80 79/103/79 86/110/86 87/107/87
f 78/102/78 77/105/77 84/112/84 85/109/85
f 83/99/83 82/98/82 89/115/89 90/114/90
f 61/116/61 90/117/90 97/118/97
f 89/119/89 88/120/88 95/121/95 96/122/96
f 87/123/87 86/124/86 93/125/93 94/126/94
f 85/127/85 84/128/84 91/129/91 92/130/92
f 90/117/90 89/119/89 96/122/96 97/118/97
f 88/120/88 87/123/87 94/126/94 95/121/95
f 86/124/86 85/127/85 92/130/92 93/125/93
f 84/128/84 62/131/62 91/129/91
f 94/126/94 93/125/93 100/132/100 101/133/101
f 92/130/92 91/129/91 98/134/98 99/135/99
f 97/118/97 96/122/96 103/136/103 104/137/104
f 95/121/95 94/126/94 101/133/101 102/138/102
f 93/125/93 92/130/92 99/135/99 100/132/100
f 91/129/91 62/139/62 98/134/98
f 61/140/61 97/118/97 104/137/104
f 96/122/96 95/121/95 102/138/102 103/136/103
f 104/137/104 103/136/103 110/141/110 111/142/111
f 102/138/102 101/133/101 108/143/108 109/144/109
f 100/132/100 99/135/99 106/145/106 107/146/107
f 98/134/98 62/147/62 105/148/105
f 61/149/61 104/137/104 111/142/111
f 103/136/103 102/138/102 109/144/109 110/141/110
f 101/133/101 100/132/100 107/146/107 108/143/108
f 99/135/99 98/134/98 105/148/105 106/145/106
f 107/146/107 106/145/106 113/10/113 1/9/1
f 105/148/105 62/150/62 112/13/112
f 61/151/61 111/142/111 4/1/4
f 110/141/110 109/144/109 3/5/3 114/2/114
f 108/143/108 107/146/107 1/9/1 2/6/2
f 106/145/106 105/148/105 112/13/112 113/10/113
f 111/142/111 110/141/110 114/2/114 4/1/4
f 109/144/109 108/143/108 2/6/2 3/5/3
